<?xml version="1.0" encoding="UTF-8" standalone="no"?>
<svg width="145px" height="29px" viewBox="0 0 145 29" version="1.1" xmlns="http://www.w3.org/2000/svg" xmlns:xlink="http://www.w3.org/1999/xlink">
    <!-- Generator: Sketch 3.8.3 (29802) - http://www.bohemiancoding.com/sketch -->
    <title>Group 9</title>
    <desc>Created with Sketch.</desc>
    <defs></defs>
    <g id="Page-1" stroke="none" stroke-width="1" fill="none" fill-rule="evenodd">
        <g id="Developer---Themes" transform="translate(-72.000000, -24.000000)" fill="#FFFFFF">
            <g id="Group-9" transform="translate(72.000000, 24.000000)">
                <text id="DEVELOPERS" font-family=".HelveticaNeueDeskInterface-Regular, .Helvetica Neue DeskInterface" font-size="15.4666667" font-weight="normal" letter-spacing="0.939999998">
                    <tspan x="35.836478" y="23.7333333">DEVELOPERS</tspan>
                </text>
                <path d="M15.2058389,21.9854026 L19.0064537,21.9854026 C20.1642121,21.9854026 20.8628261,21.3869311 20.8628261,20.3605668 C20.8628261,19.4633413 20.208147,18.7362129 19.0064537,18.7362129 L15.2058389,18.7362129 C15.0851385,18.7362129 14.9871297,18.8316214 14.9871297,18.9501592 L14.9871297,21.7714563 C14.9871297,21.8895122 15.0851385,21.9854026 15.2058389,21.9854026 Z M18.8754696,13.071164 L15.6580792,13.071164 L14.9869849,13.7380598 L14.9869849,15.8500573 C14.9869849,15.9681133 15.0849936,16.0640036 15.205694,16.0640036 L18.8754696,16.0640036 C19.9241148,16.0640036 20.5792767,15.486734 20.5792767,14.5678248 C20.5792767,13.6908375 19.9241148,13.071164 18.8754696,13.071164 Z M28.7380457,0.0637558213 L18.344774,10.3991957 L19.552261,10.3991957 C22.3269222,10.3991957 23.9592747,12.1305228 23.9592747,14.0329107 C23.9592747,15.5218617 22.9468396,16.6190595 21.876951,17.0980295 C21.7045908,17.1751273 21.7108673,17.4093118 21.8861243,17.4782179 C23.1327182,17.967307 24.0307293,19.2683321 24.0307293,20.7881222 C24.0307293,22.9478239 22.5890835,24.6579491 19.7926962,24.6579491 L12.1040795,24.6579491 C11.9833791,24.6579491 11.8853703,24.5620588 11.8853703,24.4440028 L11.8853703,16.8228868 L0.0750757147,28.5672887 C-0.0852144421,28.7267847 0.028243952,29 0.254195137,29 L28.9137855,29 C29.0214503,29 29.1088374,28.9127831 29.1088374,28.8053281 L29.1088374,0.21746953 C29.1088374,0.0242432067 28.8751614,-0.0726108854 28.7380457,0.0637558213 Z" id="Fill-1"></path>
            </g>
        </g>
    </g>
</svg>